<svg xmlns="http://www.w3.org/2000/svg" xmlns:xlink="http://www.w3.org/1999/xlink" width="500" zoomAndPan="magnify" viewBox="0 0 375 374.999991" height="500" preserveAspectRatio="xMidYMid meet" version="1.0"><path fill="#ffffff" d="M 88.214844 257.722656 C 93.230469 252.582031 104.648438 241.386719 109.542969 236.40625 C 109.109375 236.390625 108.6875 236.335938 108.265625 236.242188 C 107.847656 236.144531 107.441406 236.007812 107.046875 235.835938 C 106.65625 235.660156 106.28125 235.449219 105.929688 235.207031 C 105.574219 234.960938 105.25 234.683594 104.949219 234.375 C 104.648438 234.066406 104.382812 233.730469 104.148438 233.371094 C 103.910156 233.011719 103.714844 232.628906 103.550781 232.234375 C 103.390625 231.835938 103.265625 231.425781 103.183594 231.003906 C 103.097656 230.582031 103.058594 230.15625 103.054688 229.722656 C 103.054688 229.132812 102.996094 228.550781 102.878906 227.96875 C 102.761719 227.390625 102.589844 226.828125 102.363281 226.285156 C 102.136719 225.738281 101.855469 225.222656 101.527344 224.730469 C 101.199219 224.242188 100.824219 223.789062 100.402344 223.375 C 99.984375 222.957031 99.527344 222.585938 99.035156 222.261719 C 98.542969 221.933594 98.023438 221.660156 97.476562 221.4375 C 96.929688 221.214844 96.367188 221.046875 95.785156 220.933594 C 95.207031 220.820312 94.621094 220.765625 94.03125 220.769531 C 93.589844 220.769531 93.15625 220.726562 92.726562 220.640625 C 92.296875 220.550781 91.878906 220.425781 91.472656 220.257812 C 91.070312 220.089844 90.683594 219.882812 90.320312 219.636719 C 89.957031 219.394531 89.617188 219.117188 89.308594 218.808594 C 88.996094 218.496094 88.71875 218.160156 88.476562 217.796875 C 88.234375 217.433594 88.027344 217.046875 87.859375 216.640625 C 87.691406 216.238281 87.5625 215.820312 87.476562 215.390625 C 87.390625 214.960938 87.34375 214.527344 87.34375 214.089844 L 87.34375 159.964844 C 87.34375 159.527344 87.390625 159.089844 87.476562 158.660156 C 87.5625 158.230469 87.691406 157.816406 87.859375 157.410156 C 88.027344 157.003906 88.234375 156.621094 88.476562 156.257812 C 88.71875 155.890625 88.996094 155.554688 89.308594 155.246094 C 89.617188 154.933594 89.957031 154.65625 90.320312 154.414062 C 90.683594 154.171875 91.070312 153.964844 91.472656 153.796875 C 91.878906 153.628906 92.296875 153.5 92.726562 153.414062 C 93.15625 153.328125 93.589844 153.28125 94.03125 153.28125 C 94.621094 153.285156 95.207031 153.230469 95.785156 153.117188 C 96.367188 153.007812 96.929688 152.839844 97.476562 152.617188 C 98.023438 152.390625 98.542969 152.117188 99.035156 151.792969 C 99.527344 151.464844 99.984375 151.09375 100.402344 150.679688 C 100.824219 150.261719 101.199219 149.808594 101.527344 149.320312 C 101.855469 148.828125 102.136719 148.3125 102.363281 147.769531 C 102.589844 147.222656 102.761719 146.660156 102.878906 146.082031 C 102.996094 145.503906 103.054688 144.917969 103.054688 144.328125 C 103.058594 143.890625 103.101562 143.457031 103.1875 143.027344 C 103.273438 142.597656 103.402344 142.179688 103.570312 141.773438 C 103.738281 141.371094 103.945312 140.984375 104.1875 140.621094 C 104.433594 140.257812 104.710938 139.917969 105.019531 139.609375 C 105.332031 139.300781 105.667969 139.023438 106.03125 138.777344 C 106.398438 138.535156 106.78125 138.328125 107.1875 138.160156 C 107.589844 137.992188 108.007812 137.863281 108.4375 137.777344 C 108.867188 137.691406 109.304688 137.648438 109.742188 137.644531 L 208.359375 137.644531 L 216.316406 129.695312 L 229.6875 116.332031 L 70.027344 116.332031 C 69.589844 116.332031 69.152344 116.375 68.722656 116.460938 C 68.292969 116.546875 67.875 116.675781 67.472656 116.84375 C 67.066406 117.011719 66.683594 117.21875 66.316406 117.460938 C 65.953125 117.707031 65.617188 117.984375 65.304688 118.292969 C 64.996094 118.601562 64.71875 118.941406 64.472656 119.304688 C 64.230469 119.667969 64.023438 120.054688 63.855469 120.457031 C 63.6875 120.863281 63.558594 121.28125 63.472656 121.710938 C 63.386719 122.140625 63.34375 122.574219 63.339844 123.011719 L 63.339844 251.039062 C 63.34375 251.476562 63.386719 251.914062 63.472656 252.34375 C 63.558594 252.773438 63.6875 253.1875 63.855469 253.59375 C 64.023438 254 64.230469 254.382812 64.472656 254.746094 C 64.71875 255.113281 64.996094 255.449219 65.304688 255.757812 C 65.617188 256.070312 65.953125 256.347656 66.316406 256.589844 C 66.683594 256.832031 67.066406 257.039062 67.472656 257.207031 C 67.875 257.375 68.292969 257.503906 68.722656 257.589844 C 69.152344 257.675781 69.589844 257.722656 70.027344 257.722656 Z M 88.214844 257.722656 " fill-opacity="1" fill-rule="nonzero"/><path fill="#ffffff" d="M 304.972656 116.332031 L 286.785156 116.332031 C 281.769531 121.472656 270.351562 132.667969 265.457031 137.644531 C 265.890625 137.660156 266.3125 137.714844 266.734375 137.8125 C 267.152344 137.90625 267.558594 138.042969 267.953125 138.21875 C 268.34375 138.390625 268.71875 138.601562 269.070312 138.847656 C 269.425781 139.09375 269.75 139.371094 270.050781 139.679688 C 270.351562 139.988281 270.617188 140.320312 270.851562 140.683594 C 271.089844 141.042969 271.285156 141.421875 271.449219 141.820312 C 271.609375 142.21875 271.734375 142.628906 271.816406 143.050781 C 271.902344 143.472656 271.941406 143.898438 271.945312 144.328125 C 271.945312 144.917969 272.003906 145.503906 272.121094 146.082031 C 272.238281 146.660156 272.410156 147.222656 272.636719 147.769531 C 272.863281 148.3125 273.144531 148.828125 273.472656 149.320312 C 273.800781 149.808594 274.175781 150.261719 274.597656 150.679688 C 275.015625 151.09375 275.472656 151.464844 275.964844 151.792969 C 276.457031 152.117188 276.976562 152.390625 277.523438 152.617188 C 278.070312 152.839844 278.632812 153.007812 279.214844 153.117188 C 279.792969 153.230469 280.378906 153.285156 280.96875 153.28125 C 281.410156 153.28125 281.84375 153.328125 282.273438 153.414062 C 282.703125 153.5 283.121094 153.628906 283.527344 153.796875 C 283.929688 153.964844 284.316406 154.171875 284.679688 154.414062 C 285.042969 154.65625 285.382812 154.933594 285.691406 155.246094 C 286.003906 155.554688 286.28125 155.890625 286.523438 156.257812 C 286.765625 156.621094 286.972656 157.003906 287.140625 157.410156 C 287.308594 157.816406 287.4375 158.230469 287.523438 158.660156 C 287.609375 159.089844 287.65625 159.527344 287.65625 159.964844 L 287.65625 214.089844 C 287.65625 214.527344 287.609375 214.960938 287.523438 215.390625 C 287.4375 215.820312 287.308594 216.238281 287.140625 216.640625 C 286.972656 217.046875 286.765625 217.433594 286.523438 217.796875 C 286.28125 218.160156 286.003906 218.496094 285.691406 218.808594 C 285.382812 219.117188 285.042969 219.394531 284.679688 219.636719 C 284.316406 219.882812 283.929688 220.089844 283.527344 220.257812 C 283.121094 220.425781 282.703125 220.550781 282.273438 220.640625 C 281.84375 220.726562 281.410156 220.769531 280.96875 220.769531 C 280.378906 220.765625 279.792969 220.820312 279.214844 220.933594 C 278.632812 221.046875 278.070312 221.214844 277.523438 221.4375 C 276.976562 221.660156 276.457031 221.933594 275.964844 222.261719 C 275.472656 222.585938 275.015625 222.957031 274.597656 223.375 C 274.175781 223.789062 273.800781 224.242188 273.472656 224.730469 C 273.140625 225.222656 272.863281 225.738281 272.636719 226.285156 C 272.410156 226.828125 272.238281 227.390625 272.121094 227.96875 C 272.003906 228.550781 271.945312 229.132812 271.945312 229.722656 C 271.941406 230.164062 271.898438 230.597656 271.8125 231.027344 C 271.726562 231.457031 271.597656 231.875 271.429688 232.277344 C 271.261719 232.683594 271.054688 233.066406 270.8125 233.433594 C 270.566406 233.796875 270.289062 234.132812 269.980469 234.445312 C 269.667969 234.753906 269.332031 235.03125 268.96875 235.273438 C 268.601562 235.519531 268.21875 235.722656 267.8125 235.890625 C 267.410156 236.0625 266.992188 236.1875 266.5625 236.273438 C 266.132812 236.359375 265.695312 236.40625 265.257812 236.40625 L 166.640625 236.40625 L 158.683594 244.359375 L 145.3125 257.722656 L 304.972656 257.722656 C 305.410156 257.722656 305.847656 257.675781 306.277344 257.589844 C 306.707031 257.503906 307.125 257.375 307.527344 257.207031 C 307.933594 257.039062 308.316406 256.832031 308.683594 256.589844 C 309.046875 256.347656 309.382812 256.070312 309.695312 255.757812 C 310.003906 255.449219 310.28125 255.113281 310.527344 254.746094 C 310.769531 254.382812 310.976562 254 311.144531 253.59375 C 311.3125 253.1875 311.441406 252.773438 311.527344 252.34375 C 311.613281 251.914062 311.65625 251.476562 311.660156 251.039062 L 311.660156 123.011719 C 311.65625 122.574219 311.613281 122.140625 311.527344 121.710938 C 311.441406 121.28125 311.3125 120.863281 311.144531 120.457031 C 310.976562 120.054688 310.769531 119.667969 310.527344 119.304688 C 310.28125 118.941406 310.003906 118.601562 309.695312 118.292969 C 309.382812 117.984375 309.046875 117.707031 308.683594 117.460938 C 308.316406 117.21875 307.933594 117.011719 307.527344 116.84375 C 307.125 116.675781 306.707031 116.546875 306.277344 116.460938 C 305.847656 116.375 305.410156 116.332031 304.972656 116.332031 Z M 304.972656 116.332031 " fill-opacity="1" fill-rule="nonzero"/><path fill="#ffffff" d="M 187.5 -0.0703125 C 184.4375 -0.0664062 181.375 0.0117188 178.316406 0.164062 C 175.257812 0.316406 172.203125 0.546875 169.15625 0.847656 C 166.109375 1.152344 163.070312 1.527344 160.042969 1.980469 C 157.011719 2.433594 153.996094 2.957031 150.992188 3.558594 C 147.988281 4.15625 145 4.832031 142.03125 5.578125 C 139.058594 6.324219 136.109375 7.140625 133.179688 8.03125 C 130.25 8.921875 127.34375 9.882812 124.460938 10.917969 C 121.574219 11.949219 118.71875 13.054688 115.890625 14.226562 C 113.0625 15.398438 110.261719 16.640625 107.496094 17.949219 C 104.726562 19.261719 101.992188 20.636719 99.292969 22.082031 C 96.589844 23.527344 93.925781 25.035156 91.300781 26.609375 C 88.675781 28.183594 86.085938 29.824219 83.542969 31.523438 C 80.996094 33.226562 78.492188 34.988281 76.03125 36.8125 C 73.574219 38.636719 71.160156 40.519531 68.792969 42.460938 C 66.425781 44.402344 64.105469 46.402344 61.835938 48.457031 C 59.566406 50.515625 57.351562 52.625 55.183594 54.789062 C 53.019531 56.953125 50.90625 59.167969 48.851562 61.4375 C 46.792969 63.707031 44.792969 66.023438 42.847656 68.386719 C 40.90625 70.753906 39.023438 73.167969 37.195312 75.625 C 35.371094 78.082031 33.609375 80.585938 31.90625 83.128906 C 30.203125 85.675781 28.5625 88.257812 26.988281 90.882812 C 25.414062 93.507812 23.902344 96.171875 22.457031 98.871094 C 21.011719 101.570312 19.636719 104.300781 18.324219 107.066406 C 17.011719 109.835938 15.769531 112.632812 14.597656 115.460938 C 13.425781 118.285156 12.320312 121.140625 11.285156 124.023438 C 10.253906 126.902344 9.289062 129.808594 8.398438 132.738281 C 7.507812 135.667969 6.691406 138.613281 5.941406 141.582031 C 5.195312 144.550781 4.523438 147.539062 3.921875 150.539062 C 3.324219 153.542969 2.796875 156.554688 2.34375 159.582031 C 1.894531 162.609375 1.515625 165.648438 1.210938 168.695312 C 0.910156 171.738281 0.679688 174.792969 0.527344 177.847656 C 0.375 180.90625 0.296875 183.964844 0.292969 187.027344 C 10.570312 435.238281 364.46875 435.164062 374.707031 187.023438 C 374.703125 183.964844 374.625 180.90625 374.472656 177.847656 C 374.320312 174.789062 374.089844 171.738281 373.789062 168.691406 C 373.484375 165.648438 373.105469 162.609375 372.65625 159.582031 C 372.203125 156.554688 371.675781 153.539062 371.078125 150.539062 C 370.476562 147.535156 369.804688 144.550781 369.058594 141.582031 C 368.308594 138.613281 367.492188 135.664062 366.601562 132.738281 C 365.710938 129.808594 364.746094 126.902344 363.714844 124.019531 C 362.679688 121.140625 361.574219 118.285156 360.402344 115.457031 C 359.230469 112.628906 357.984375 109.832031 356.675781 107.066406 C 355.363281 104.300781 353.988281 101.566406 352.542969 98.867188 C 351.097656 96.171875 349.585938 93.507812 348.011719 90.882812 C 346.433594 88.257812 344.796875 85.671875 343.09375 83.128906 C 341.390625 80.582031 339.628906 78.082031 337.804688 75.625 C 335.976562 73.164062 334.09375 70.753906 332.148438 68.386719 C 330.207031 66.023438 328.207031 63.703125 326.148438 61.4375 C 324.09375 59.167969 321.980469 56.953125 319.816406 54.789062 C 317.648438 52.625 315.433594 50.511719 313.164062 48.457031 C 310.894531 46.402344 308.574219 44.402344 306.207031 42.460938 C 303.839844 40.519531 301.425781 38.636719 298.96875 36.8125 C 296.507812 34.988281 294.003906 33.226562 291.457031 31.523438 C 288.910156 29.820312 286.324219 28.183594 283.699219 26.609375 C 281.074219 25.035156 278.410156 23.527344 275.707031 22.082031 C 273.007812 20.636719 270.273438 19.261719 267.503906 17.949219 C 264.738281 16.640625 261.9375 15.398438 259.109375 14.226562 C 256.28125 13.054688 253.425781 11.949219 250.539062 10.917969 C 247.65625 9.882812 244.75 8.921875 241.820312 8.03125 C 238.890625 7.140625 235.941406 6.324219 232.96875 5.578125 C 230 4.832031 227.011719 4.15625 224.007812 3.558594 C 221.003906 2.957031 217.988281 2.433594 214.957031 1.980469 C 211.929688 1.527344 208.890625 1.152344 205.84375 0.847656 C 202.796875 0.546875 199.742188 0.316406 196.683594 0.164062 C 193.625 0.0117188 190.5625 -0.0664062 187.5 -0.0703125 Z M 187.5 348.332031 C 182.804688 348.328125 178.117188 348.121094 173.4375 347.710938 C 168.761719 347.300781 164.109375 346.6875 159.484375 345.867188 C 154.859375 345.050781 150.28125 344.035156 145.742188 342.820312 C 141.207031 341.601562 136.734375 340.191406 132.320312 338.585938 C 127.910156 336.980469 123.574219 335.183594 119.320312 333.199219 C 115.0625 331.214844 110.902344 329.050781 106.835938 326.703125 C 102.769531 324.355469 98.8125 321.832031 94.964844 319.140625 C 91.121094 316.449219 87.398438 313.59375 83.800781 310.578125 C 83.445312 310.28125 83.128906 309.949219 82.84375 309.585938 C 82.558594 309.222656 82.3125 308.835938 82.105469 308.421875 C 81.902344 308.007812 81.742188 307.578125 81.625 307.128906 C 81.511719 306.683594 81.441406 306.230469 81.417969 305.769531 C 81.398438 305.304688 81.421875 304.847656 81.496094 304.390625 C 81.566406 303.9375 81.6875 303.492188 81.851562 303.0625 C 82.015625 302.628906 82.222656 302.21875 82.472656 301.832031 C 82.722656 301.441406 83.007812 301.082031 83.332031 300.753906 L 301.296875 82.921875 C 301.972656 82.28125 302.746094 81.796875 303.613281 81.460938 C 304.480469 81.125 305.378906 80.964844 306.308594 80.980469 C 307.25 81.015625 308.136719 81.242188 308.976562 81.664062 C 309.816406 82.082031 310.53125 82.660156 311.125 83.386719 C 313.578125 86.308594 315.925781 89.3125 318.164062 92.398438 C 320.40625 95.488281 322.535156 98.648438 324.550781 101.886719 C 326.566406 105.125 328.464844 108.433594 330.246094 111.804688 C 332.027344 115.179688 333.683594 118.609375 335.222656 122.101562 C 336.761719 125.589844 338.171875 129.132812 339.457031 132.722656 C 340.746094 136.3125 341.902344 139.945312 342.929688 143.617188 C 343.957031 147.289062 344.855469 150.992188 345.621094 154.730469 C 346.386719 158.464844 347.019531 162.226562 347.515625 166.007812 C 348.015625 169.789062 348.378906 173.582031 348.609375 177.386719 C 348.835938 181.195312 348.933594 185.003906 348.890625 188.820312 C 348.847656 192.632812 348.671875 196.441406 348.359375 200.242188 C 348.050781 204.042969 347.601562 207.828125 347.023438 211.597656 C 346.441406 215.367188 345.730469 219.109375 344.882812 222.828125 C 344.039062 226.546875 343.058594 230.230469 341.953125 233.882812 C 340.84375 237.53125 339.609375 241.136719 338.246094 244.699219 C 336.882812 248.261719 335.394531 251.769531 333.78125 255.226562 C 332.167969 258.683594 330.433594 262.078125 328.582031 265.410156 C 326.726562 268.746094 324.757812 272.007812 322.671875 275.203125 C 320.585938 278.394531 318.390625 281.511719 316.082031 284.550781 C 313.777344 287.589844 311.367188 290.539062 308.847656 293.40625 C 306.332031 296.273438 303.71875 299.050781 301.003906 301.730469 C 298.292969 304.414062 295.488281 306.996094 292.589844 309.476562 C 289.691406 311.960938 286.710938 314.339844 283.648438 316.609375 C 280.582031 318.882812 277.4375 321.039062 274.222656 323.089844 C 271.003906 325.136719 267.714844 327.070312 264.359375 328.886719 C 261.003906 330.703125 257.585938 332.394531 254.109375 333.96875 C 250.632812 335.542969 247.105469 336.992188 243.527344 338.3125 C 239.949219 339.636719 236.328125 340.832031 232.664062 341.898438 C 229 342.964844 225.304688 343.898438 221.574219 344.703125 C 217.84375 345.507812 214.089844 346.179688 210.308594 346.71875 C 206.53125 347.253906 202.742188 347.660156 198.933594 347.929688 C 195.128906 348.199219 191.316406 348.332031 187.5 348.332031 Z M 26.101562 187.027344 C 26.097656 183.210938 26.234375 179.402344 26.503906 175.597656 C 26.773438 171.792969 27.175781 168.003906 27.714844 164.230469 C 28.253906 160.453125 28.925781 156.703125 29.730469 152.972656 C 30.535156 149.246094 31.46875 145.550781 32.535156 141.890625 C 33.601562 138.226562 34.796875 134.609375 36.121094 131.03125 C 37.445312 127.453125 38.894531 123.929688 40.46875 120.453125 C 42.042969 116.980469 43.738281 113.566406 45.554688 110.210938 C 47.371094 106.859375 49.304688 103.574219 51.355469 100.355469 C 53.40625 97.140625 55.566406 94 57.839844 90.9375 C 60.113281 87.871094 62.492188 84.894531 64.976562 82 C 67.460938 79.105469 70.042969 76.300781 72.726562 73.589844 C 75.410156 70.875 78.1875 68.261719 81.054688 65.75 C 83.925781 63.234375 86.878906 60.824219 89.917969 58.519531 C 92.957031 56.214844 96.074219 54.019531 99.273438 51.933594 C 102.46875 49.851562 105.734375 47.882812 109.070312 46.027344 C 112.402344 44.175781 115.800781 42.445312 119.257812 40.832031 C 122.71875 39.21875 126.230469 37.734375 129.792969 36.371094 C 133.355469 35.007812 136.964844 33.773438 140.617188 32.664062 C 144.269531 31.558594 147.957031 30.582031 151.675781 29.734375 C 155.398438 28.890625 159.144531 28.175781 162.914062 27.597656 C 166.6875 27.015625 170.472656 26.570312 174.277344 26.261719 C 178.082031 25.949219 181.890625 25.773438 185.707031 25.730469 C 189.523438 25.691406 193.335938 25.785156 197.144531 26.011719 C 200.953125 26.242188 204.75 26.605469 208.53125 27.105469 C 212.316406 27.601562 216.078125 28.234375 219.816406 29 C 223.554688 29.765625 227.261719 30.660156 230.933594 31.6875 C 234.609375 32.714844 238.242188 33.871094 241.835938 35.15625 C 245.429688 36.441406 248.972656 37.855469 252.464844 39.390625 C 255.957031 40.925781 259.390625 42.585938 262.765625 44.367188 C 266.140625 46.144531 269.449219 48.042969 272.6875 50.058594 C 275.929688 52.074219 279.09375 54.199219 282.183594 56.4375 C 285.269531 58.675781 288.277344 61.023438 291.199219 63.476562 C 291.929688 64.066406 292.503906 64.78125 292.925781 65.621094 C 293.34375 66.460938 293.570312 67.347656 293.605469 68.285156 C 293.636719 69.21875 293.484375 70.121094 293.148438 70.988281 C 292.8125 71.859375 292.320312 72.628906 291.667969 73.296875 L 73.703125 291.132812 C 73.375 291.457031 73.015625 291.742188 72.628906 291.992188 C 72.238281 292.242188 71.828125 292.449219 71.398438 292.613281 C 70.964844 292.78125 70.519531 292.898438 70.066406 292.972656 C 69.609375 293.046875 69.148438 293.070312 68.6875 293.046875 C 68.226562 293.027344 67.773438 292.957031 67.324219 292.839844 C 66.878906 292.726562 66.445312 292.566406 66.03125 292.359375 C 65.617188 292.15625 65.230469 291.910156 64.867188 291.625 C 64.503906 291.339844 64.171875 291.019531 63.875 290.664062 C 60.855469 287.070312 58 283.347656 55.304688 279.503906 C 52.613281 275.660156 50.089844 271.707031 47.742188 267.644531 C 45.394531 263.578125 43.226562 259.417969 41.238281 255.167969 C 39.253906 250.914062 37.457031 246.582031 35.851562 242.171875 C 34.242188 237.761719 32.832031 233.289062 31.613281 228.757812 C 30.398438 224.222656 29.378906 219.648438 28.5625 215.023438 C 27.746094 210.402344 27.132812 205.753906 26.71875 201.078125 C 26.308594 196.402344 26.101562 191.71875 26.101562 187.027344 Z M 26.101562 187.027344 " fill-opacity="1" fill-rule="nonzero"/><path fill="#ffffff" d="M 274.285156 208.410156 L 274.285156 165.644531 C 272.558594 165.109375 270.921875 164.375 269.371094 163.445312 C 267.824219 162.511719 266.410156 161.410156 265.128906 160.136719 C 263.847656 158.859375 262.738281 157.453125 261.796875 155.910156 C 260.859375 154.367188 260.117188 152.734375 259.574219 151.011719 L 252.085938 151.011719 L 211.035156 192.039062 C 209.042969 207.050781 198.554688 218.046875 185.960938 217.09375 L 180.011719 223.042969 L 259.574219 223.042969 C 260.117188 221.320312 260.859375 219.6875 261.796875 218.144531 C 262.738281 216.601562 263.847656 215.191406 265.128906 213.917969 C 266.410156 212.644531 267.824219 211.539062 269.371094 210.609375 C 270.921875 209.675781 272.558594 208.945312 274.285156 208.410156 Z M 274.285156 208.410156 " fill-opacity="1" fill-rule="nonzero"/><path fill="#ffffff" d="M 100.714844 165.644531 L 100.714844 208.410156 C 102.441406 208.945312 104.078125 209.675781 105.628906 210.609375 C 107.175781 211.539062 108.589844 212.644531 109.871094 213.917969 C 111.152344 215.191406 112.261719 216.601562 113.203125 218.144531 C 114.140625 219.6875 114.882812 221.320312 115.425781 223.042969 L 122.914062 223.042969 L 163.964844 182.015625 C 165.957031 167 176.445312 156.003906 189.039062 156.957031 L 194.988281 151.011719 L 115.425781 151.011719 C 114.882812 152.734375 114.140625 154.367188 113.203125 155.910156 C 112.261719 157.453125 111.152344 158.859375 109.871094 160.136719 C 108.589844 161.410156 107.175781 162.511719 105.628906 163.445312 C 104.078125 164.375 102.441406 165.109375 100.714844 165.644531 Z M 100.714844 165.644531 " fill-opacity="1" fill-rule="nonzero"/></svg>