<svg xmlns="http://www.w3.org/2000/svg" xmlns:xlink="http://www.w3.org/1999/xlink" width="500" zoomAndPan="magnify" viewBox="0 0 375 374.999991" height="500" preserveAspectRatio="xMidYMid meet" version="1.0"><path fill="#ffffff" d="M 352.542969 356.871094 L 352.542969 106.121094 C 352.542969 92.6875 341.617188 81.777344 328.183594 81.777344 L 309.9375 81.777344 C 296.53125 81.777344 285.605469 92.703125 285.605469 106.121094 L 285.605469 356.871094 L 268.625 356.871094 L 268.625 191.074219 C 268.625 177.636719 257.703125 166.726562 244.265625 166.726562 L 226.019531 166.726562 C 212.613281 166.726562 201.6875 177.652344 201.6875 191.074219 L 201.6875 356.871094 L 184.679688 356.871094 L 184.679688 236.605469 C 184.679688 223.183594 173.785156 212.257812 160.347656 212.257812 L 142.042969 212.257812 C 128.605469 212.257812 117.710938 223.183594 117.710938 236.605469 L 117.710938 356.871094 L 100.6875 356.871094 L 100.6875 257.4375 C 100.6875 244.015625 89.765625 233.089844 76.359375 233.089844 L 58.082031 233.089844 C 44.675781 233.089844 33.75 244.015625 33.75 257.4375 L 33.75 356.871094 L 13.257812 356.871094 L 13.257812 50.390625 L 0 50.390625 L 0 363.515625 C 0 367.191406 2.96875 370.15625 6.628906 370.15625 L 374.691406 370.15625 L 374.691406 356.871094 Z M 47.039062 356.871094 L 47.039062 257.4375 C 47.039062 251.339844 51.996094 246.378906 58.082031 246.378906 L 76.359375 246.378906 C 82.441406 246.378906 87.402344 251.339844 87.402344 257.4375 L 87.402344 356.871094 Z M 130.96875 356.871094 L 130.96875 236.605469 C 130.96875 230.507812 135.929688 225.546875 142.042969 225.546875 L 160.289062 225.546875 C 166.371094 225.546875 171.332031 230.507812 171.332031 236.605469 L 171.332031 356.871094 Z M 214.945312 356.871094 L 214.945312 191.074219 C 214.945312 184.976562 219.90625 180.015625 225.988281 180.015625 L 244.238281 180.015625 C 250.347656 180.015625 255.308594 184.976562 255.308594 191.074219 L 255.308594 356.871094 Z M 298.878906 356.871094 L 298.878906 106.121094 C 298.878906 100.023438 303.839844 95.0625 309.921875 95.0625 L 328.167969 95.0625 C 334.28125 95.0625 339.242188 100.023438 339.242188 106.121094 L 339.242188 356.871094 Z M 298.878906 356.871094 " fill-opacity="1" fill-rule="nonzero"/><path fill="#ffffff" d="M 302.390625 34.828125 L 302.390625 61.964844 L 315.679688 61.964844 L 315.679688 11.8125 C 315.679688 9.714844 314.703125 7.734375 312.992188 6.480469 C 311.324219 5.226562 309.125 4.84375 307.144531 5.433594 L 260.035156 19.445312 L 263.84375 32.183594 L 294.242188 23.136719 C 218.402344 138.246094 61.046875 184.179688 59.394531 184.652344 L 63.027344 197.4375 C 69.863281 195.5 223.183594 150.769531 302.390625 34.828125 Z M 302.390625 34.828125 " fill-opacity="1" fill-rule="nonzero"/></svg>