<svg xmlns="http://www.w3.org/2000/svg" xmlns:xlink="http://www.w3.org/1999/xlink" width="500" zoomAndPan="magnify" viewBox="0 0 375 374.999991" height="500" preserveAspectRatio="xMidYMid meet" version="1.0"><defs><clipPath id="f3e4d29ab4"><path d="M 20 1 L 354 1 L 354 374.996094 L 20 374.996094 Z M 20 1 " clip-rule="nonzero"/></clipPath></defs><g clip-path="url(#f3e4d29ab4)"><path fill="#ffffff" d="M 350.363281 243.578125 C 347.121094 238.167969 333.84375 222.09375 299.054688 242.34375 L 238.640625 277.519531 C 236.152344 278.96875 233.625 280.0625 231.015625 280.804688 C 231.863281 279.203125 232.546875 277.445312 233.054688 275.554688 C 236.234375 263.691406 229.191406 251.308594 217.023438 247.367188 C 216.765625 247.28125 216.5 247.214844 216.234375 247.167969 C 198.925781 244.046875 181.816406 237.863281 168.070312 232.898438 C 163.28125 231.167969 158.757812 229.53125 154.90625 228.285156 C 139.191406 223.1875 125.046875 229.460938 113.28125 236.269531 L 68.914062 261.945312 L 65.003906 255.042969 C 63.046875 251.585938 59.847656 249.09375 56 248.027344 C 52.15625 246.960938 48.132812 247.453125 44.671875 249.410156 L 27.722656 259 C 20.5625 263.050781 18.035156 272.164062 22.085938 279.320312 L 71.921875 367.339844 C 73.878906 370.796875 77.078125 373.289062 80.925781 374.355469 C 82.253906 374.722656 83.605469 374.90625 84.949219 374.90625 C 87.484375 374.90625 89.992188 374.253906 92.253906 372.972656 L 109.207031 363.382812 C 116.363281 359.332031 118.890625 350.21875 114.839844 343.0625 L 110.023438 334.558594 L 119.464844 329.109375 L 196.578125 349.765625 C 200.90625 350.921875 205.210938 351.5 209.449219 351.5 C 218.011719 351.5 226.289062 349.140625 233.855469 344.488281 L 343.492188 277.003906 C 353.777344 270.671875 357.050781 254.742188 350.363281 243.578125 Z M 103.269531 352.90625 L 86.320312 362.496094 C 85.429688 363 84.574219 362.871094 84.140625 362.753906 C 83.707031 362.632812 82.90625 362.300781 82.40625 361.410156 L 32.570312 273.390625 C 31.804688 272.039062 32.300781 270.246094 33.65625 269.480469 L 50.605469 259.890625 C 51.101562 259.609375 51.585938 259.523438 51.992188 259.523438 C 52.316406 259.523438 52.59375 259.578125 52.785156 259.632812 C 53.21875 259.75 54.015625 260.085938 54.519531 260.972656 L 104.355469 348.992188 C 105.125 350.347656 104.625 352.140625 103.269531 352.90625 Z M 206.273438 292.132812 L 213.789062 293.355469 C 225.183594 295.175781 235.292969 293.398438 244.703125 287.921875 L 305.117188 252.75 C 322.15625 242.832031 335.207031 241.714844 340.03125 249.761719 C 343.332031 255.277344 341.890625 263.847656 337.175781 266.75 L 227.535156 334.234375 C 219.003906 339.484375 209.636719 340.796875 199.695312 338.132812 L 120.171875 316.835938 C 118.628906 316.421875 116.984375 316.636719 115.601562 317.4375 L 104.089844 324.078125 L 74.84375 272.425781 L 119.316406 246.6875 C 129.261719 240.933594 140.003906 236.105469 151.1875 239.734375 C 154.851562 240.921875 159.078125 242.449219 163.972656 244.21875 C 178.035156 249.300781 195.503906 255.613281 213.65625 258.9375 C 219.605469 261.039062 222.933594 266.78125 221.417969 272.433594 C 219.421875 279.882812 213.171875 280.804688 208.1875 280.238281 C 199.332031 278.414062 190.898438 276.007812 181.980469 273.464844 C 177.734375 272.25 173.34375 270.996094 168.832031 269.789062 C 165.617188 268.929688 162.316406 270.835938 161.453125 274.046875 C 160.59375 277.257812 162.5 280.558594 165.710938 281.417969 C 170.132812 282.601562 174.472656 283.84375 178.671875 285.039062 C 187.90625 287.675781 196.628906 290.167969 206.035156 292.089844 M 55.199219 276.3125 C 55.683594 279.617188 53.394531 282.691406 50.085938 283.171875 C 46.777344 283.65625 43.707031 281.371094 43.222656 278.0625 C 42.738281 274.757812 45.027344 271.683594 48.335938 271.203125 C 51.640625 270.71875 54.714844 273.007812 55.199219 276.3125 Z M 144.03125 95.691406 C 146.816406 101.125 148.214844 103.851562 148.617188 106.117188 C 149.015625 108.382812 148.632812 111.421875 147.875 117.476562 C 147.683594 119 147.472656 120.699219 147.242188 122.605469 C 145.988281 133.09375 151.671875 142.933594 161.386719 147.09375 C 163.152344 147.851562 164.730469 148.511719 166.144531 149.109375 C 166.402344 149.21875 166.648438 149.324219 166.894531 149.425781 L 144.507812 197.484375 C 143.5625 199.519531 143.824219 201.910156 145.1875 203.6875 C 146.554688 205.46875 148.792969 206.34375 151.003906 205.957031 L 175.609375 201.660156 L 188.160156 223.246094 C 189.238281 225.105469 191.226562 226.242188 193.363281 226.242188 C 193.457031 226.242188 193.546875 226.238281 193.640625 226.234375 C 195.878906 226.132812 197.878906 224.792969 198.824219 222.761719 L 221.046875 175.054688 L 220.609375 174.847656 C 224.414062 173.699219 226.660156 173.121094 228.5 173.121094 C 230.800781 173.121094 233.730469 174.023438 239.5625 175.824219 C 240.175781 176.011719 240.824219 176.210938 241.496094 176.417969 L 257.535156 213.636719 C 258.421875 215.695312 260.378906 217.089844 262.617188 217.257812 C 262.769531 217.269531 262.917969 217.273438 263.066406 217.273438 C 265.136719 217.273438 267.078125 216.207031 268.183594 214.425781 L 281.351562 193.214844 L 305.820312 198.222656 C 308.019531 198.671875 310.285156 197.863281 311.699219 196.125 C 313.117188 194.386719 313.449219 192.003906 312.5625 189.945312 L 294.332031 147.640625 C 294.75 147.464844 295.175781 147.28125 295.613281 147.09375 C 305.324219 142.9375 311.011719 133.09375 309.753906 122.605469 C 309.527344 120.699219 309.316406 119.003906 309.125 117.480469 C 308.363281 111.425781 307.984375 108.382812 308.382812 106.117188 C 308.78125 103.851562 310.179688 101.125 312.964844 95.695312 C 313.667969 94.328125 314.449219 92.808594 315.316406 91.09375 C 320.082031 81.667969 318.109375 70.476562 310.402344 63.246094 C 309.003906 61.933594 307.75 60.769531 306.625 59.726562 C 302.148438 55.574219 299.898438 53.492188 298.75 51.496094 C 297.597656 49.503906 296.914062 46.519531 295.558594 40.566406 C 295.214844 39.070312 294.835938 37.402344 294.398438 35.535156 C 291.988281 25.25 283.277344 17.945312 272.726562 17.359375 C 270.808594 17.25 269.101562 17.167969 267.566406 17.089844 C 261.46875 16.789062 258.40625 16.632812 256.242188 15.847656 C 254.082031 15.058594 251.636719 13.210938 246.769531 9.523438 C 245.546875 8.597656 244.183594 7.566406 242.644531 6.414062 C 234.183594 0.0820312 222.816406 0.0820312 214.359375 6.414062 C 212.820312 7.566406 211.457031 8.597656 210.230469 9.523438 C 205.363281 13.210938 202.921875 15.058594 200.757812 15.847656 C 198.59375 16.632812 195.535156 16.789062 189.433594 17.089844 C 187.902344 17.167969 186.191406 17.25 184.273438 17.359375 C 173.722656 17.945312 165.015625 25.25 162.605469 35.535156 C 162.167969 37.402344 161.785156 39.070312 161.445312 40.566406 C 160.085938 46.519531 159.40625 49.503906 158.253906 51.496094 C 157.101562 53.492188 154.855469 55.574219 150.378906 59.726562 C 149.253906 60.769531 148 61.933594 146.597656 63.246094 C 138.890625 70.476562 136.917969 81.664062 141.683594 91.09375 C 142.550781 92.804688 143.332031 94.328125 144.03125 95.691406 Z M 192.777344 207.222656 L 183.914062 191.980469 C 182.648438 189.800781 180.160156 188.644531 177.671875 189.074219 L 160.296875 192.109375 L 177.472656 155.238281 C 178.890625 156.824219 180.480469 159.277344 183.097656 163.328125 C 183.929688 164.617188 184.859375 166.054688 185.910156 167.664062 C 190.378906 174.492188 197.769531 178.363281 205.5625 178.363281 C 205.785156 178.363281 206.007812 178.347656 206.230469 178.339844 Z M 279.65625 180.574219 C 277.1875 180.070312 274.660156 181.15625 273.332031 183.296875 L 264.03125 198.277344 L 255.308594 178.027344 C 261.621094 176.96875 267.367188 173.347656 271.085938 167.664062 C 272.140625 166.054688 273.066406 164.621094 273.898438 163.328125 C 277.210938 158.203125 278.875 155.628906 280.636719 154.148438 C 281.328125 153.570312 282.179688 153.039062 283.296875 152.460938 L 296.933594 184.113281 Z M 154.839844 72.023438 C 156.21875 70.730469 157.457031 69.582031 158.570312 68.550781 C 169.257812 58.636719 169.941406 57.453125 173.1875 43.246094 C 173.523438 41.765625 173.898438 40.121094 174.332031 38.277344 C 175.53125 33.164062 179.695312 29.671875 184.941406 29.378906 C 186.835938 29.273438 188.519531 29.191406 190.03125 29.113281 C 204.597656 28.390625 205.878906 27.921875 217.503906 19.121094 C 218.710938 18.203125 220.058594 17.183594 221.574219 16.050781 C 223.679688 14.476562 226.089844 13.6875 228.5 13.6875 C 230.910156 13.6875 233.320312 14.476562 235.425781 16.050781 C 236.941406 17.183594 238.289062 18.203125 239.496094 19.117188 C 251.121094 27.921875 252.402344 28.386719 266.96875 29.113281 C 268.480469 29.1875 270.164062 29.273438 272.058594 29.378906 C 277.304688 29.667969 281.46875 33.164062 282.667969 38.277344 C 283.101562 40.121094 283.476562 41.765625 283.8125 43.246094 C 287.058594 57.453125 287.738281 58.636719 298.429688 68.550781 C 299.542969 69.582031 300.777344 70.726562 302.160156 72.023438 C 305.992188 75.621094 306.9375 80.972656 304.566406 85.660156 C 303.710938 87.351562 302.941406 88.851562 302.25 90.199219 C 295.59375 103.167969 295.359375 104.515625 297.171875 118.976562 C 297.359375 120.480469 297.570312 122.152344 297.796875 124.035156 C 298.421875 129.25 295.703125 133.957031 290.871094 136.023438 C 289.128906 136.769531 287.574219 137.425781 286.175781 138.015625 C 272.738281 143.675781 271.691406 144.550781 263.78125 156.796875 C 262.960938 158.070312 262.042969 159.488281 261.007812 161.070312 C 258.132812 165.46875 253.023438 167.328125 247.992188 165.808594 C 246.175781 165.257812 244.5625 164.761719 243.117188 164.316406 C 229.183594 160.019531 227.816406 160.019531 213.882812 164.316406 C 212.433594 164.761719 210.820312 165.257812 209.007812 165.808594 C 203.976562 167.328125 198.867188 165.46875 195.992188 161.070312 C 194.953125 159.488281 194.039062 158.070312 193.214844 156.796875 C 185.304688 144.550781 184.257812 143.675781 170.820312 138.015625 C 169.425781 137.425781 167.871094 136.769531 166.128906 136.023438 C 161.296875 133.957031 158.578125 129.25 159.203125 124.035156 C 159.425781 122.152344 159.636719 120.476562 159.828125 118.976562 C 161.640625 104.511719 161.402344 103.167969 154.75 90.199219 C 154.058594 88.851562 153.289062 87.347656 152.433594 85.660156 C 150.0625 80.972656 151.007812 75.621094 154.839844 72.023438 Z M 228.5 145.210938 C 258.949219 145.210938 283.722656 120.449219 283.722656 90.011719 C 283.722656 59.574219 258.949219 34.8125 228.5 34.8125 C 198.046875 34.8125 173.273438 59.574219 173.273438 90.011719 C 173.273438 120.449219 198.046875 145.210938 228.5 145.210938 Z M 228.5 46.851562 C 252.304688 46.851562 271.675781 66.210938 271.675781 90.011719 C 271.675781 113.808594 252.308594 133.171875 228.5 133.171875 C 204.6875 133.171875 185.320312 113.808594 185.320312 90.011719 C 185.320312 66.210938 204.691406 46.851562 228.5 46.851562 Z M 213.167969 111.34375 L 197.667969 95.851562 C 195.316406 93.5 195.316406 89.6875 197.667969 87.335938 C 200.019531 84.984375 203.832031 84.984375 206.183594 87.335938 L 217.625 98.773438 L 251.023438 68.476562 C 253.488281 66.242188 257.296875 66.429688 259.53125 68.890625 C 261.765625 71.351562 261.582031 75.160156 259.117188 77.394531 L 221.472656 111.546875 C 220.320312 112.589844 218.871094 113.105469 217.425781 113.105469 C 215.882812 113.105469 214.339844 112.515625 213.167969 111.34375 Z M 213.167969 111.34375 " fill-opacity="1" fill-rule="nonzero"/></g></svg>