<svg xmlns="http://www.w3.org/2000/svg" xmlns:xlink="http://www.w3.org/1999/xlink" width="500" zoomAndPan="magnify" viewBox="0 0 375 374.999991" height="500" preserveAspectRatio="xMidYMid meet" version="1.0"><defs><clipPath id="e68bab3692"><path d="M 42 0 L 332.933594 0 L 332.933594 374.878906 L 42 374.878906 Z M 42 0 " clip-rule="nonzero"/></clipPath></defs><g clip-path="url(#e68bab3692)"><path fill="#ffffff" d="M 332.300781 249.585938 L 332.300781 252.386719 C 332.300781 253.347656 331.519531 254.15625 330.53125 254.15625 L 310.980469 254.15625 C 309.996094 254.15625 309.210938 253.347656 309.210938 252.386719 L 309.210938 249.585938 C 309.210938 248.597656 309.996094 247.816406 310.980469 247.816406 L 330.53125 247.816406 C 331.519531 247.816406 332.300781 248.597656 332.300781 249.585938 Z M 332.300781 261.984375 L 332.300781 264.789062 C 332.300781 265.746094 331.519531 266.554688 330.53125 266.554688 L 309.339844 266.554688 C 308.355469 266.554688 307.570312 265.746094 307.570312 264.789062 L 307.570312 261.984375 C 307.570312 261 308.355469 260.21875 309.339844 260.21875 L 330.53125 260.21875 C 331.519531 260.21875 332.300781 261 332.300781 261.984375 Z M 332.300781 274.386719 L 332.300781 277.1875 C 332.300781 277.796875 331.972656 278.300781 331.519531 278.628906 C 331.1875 278.578125 330.859375 278.527344 330.53125 278.527344 L 314.492188 278.527344 C 313.632812 278.527344 312.800781 278.703125 312.015625 278.957031 L 310.980469 278.957031 C 309.996094 278.957031 309.210938 278.171875 309.210938 277.1875 L 309.210938 274.386719 C 309.210938 273.402344 309.996094 272.617188 310.980469 272.617188 L 330.53125 272.617188 C 331.519531 272.617188 332.300781 273.402344 332.300781 274.386719 Z M 275.488281 194.703125 C 268.519531 196.851562 260.964844 198.996094 253.082031 200.964844 L 253.082031 148.6875 C 256.746094 150.378906 264.628906 158.613281 275.488281 194.703125 Z M 247.019531 202.429688 C 241.691406 203.667969 236.261719 204.804688 230.726562 205.816406 C 231.15625 205.285156 231.4375 204.628906 231.4375 203.894531 L 231.4375 134.441406 L 247.019531 144.015625 Z M 187.433594 163.636719 C 207.867188 163.636719 224.160156 140.882812 224.160156 131.941406 C 224.160156 131.589844 224.058594 131.261719 223.957031 130.933594 C 224.4375 130.425781 224.917969 129.921875 225.375 129.417969 L 225.375 200.867188 L 149.921875 200.867188 L 149.921875 130.980469 C 150.199219 131.234375 150.476562 131.511719 150.753906 131.789062 C 150.753906 131.839844 150.703125 131.890625 150.703125 131.941406 C 150.703125 140.882812 166.996094 163.636719 187.433594 163.636719 Z M 224.160156 206.925781 C 211.960938 208.898438 199.507812 210.132812 187.433594 210.132812 C 175.355469 210.132812 162.902344 208.898438 150.703125 206.925781 Z M 126.351562 78.625 C 127.007812 78.121094 127.4375 77.363281 127.515625 76.53125 C 130.167969 49.859375 137.265625 18.492188 168.109375 9.398438 L 175.078125 50.136719 C 175.332031 51.601562 176.59375 52.664062 178.058594 52.664062 C 178.210938 52.664062 178.386719 52.636719 178.566406 52.613281 C 180.207031 52.335938 181.320312 50.769531 181.039062 49.101562 L 173.640625 5.890625 C 174.902344 4.121094 178.816406 -0.171875 187.433594 -0.171875 C 196.375 -0.171875 200.035156 4.375 201.074219 6.089844 L 193.875 49.128906 C 193.621094 50.769531 194.730469 52.335938 196.375 52.613281 C 198.015625 52.890625 199.582031 51.78125 199.859375 50.113281 L 206.65625 9.476562 C 237.976562 18.921875 244.925781 52.03125 247.351562 76.53125 C 247.425781 77.363281 247.855469 78.121094 248.511719 78.625 L 253.285156 82.3125 L 121.601562 82.3125 Z M 138.679688 88.402344 L 236.488281 88.402344 C 236.742188 92.140625 236.691406 94.890625 236.664062 95.925781 L 236.664062 96.40625 C 236.664062 107.140625 216.027344 142.195312 188.238281 142.195312 C 161.589844 142.195312 138.171875 113.65625 138.171875 96.40625 C 138.171875 95.21875 138.25 92.316406 138.679688 88.402344 Z M 143.855469 134.390625 L 143.855469 203.894531 C 143.855469 204.679688 144.160156 205.359375 144.640625 205.890625 C 138.957031 204.882812 133.324219 203.695312 127.84375 202.429688 L 127.84375 144.015625 Z M 121.78125 148.535156 L 121.78125 200.964844 C 113.417969 198.894531 105.4375 196.621094 98.109375 194.347656 C 108.820312 158.132812 117.410156 150.023438 121.78125 148.535156 Z M 42.5625 249.585938 C 42.5625 248.597656 43.347656 247.816406 44.332031 247.816406 L 63.882812 247.816406 C 64.867188 247.816406 65.652344 248.597656 65.652344 249.585938 L 65.652344 252.386719 C 65.652344 253.347656 64.867188 254.15625 63.882812 254.15625 L 44.332031 254.15625 C 43.347656 254.15625 42.5625 253.347656 42.5625 252.386719 Z M 60.371094 278.527344 L 44.332031 278.527344 C 44.003906 278.527344 43.675781 278.578125 43.347656 278.628906 C 42.890625 278.300781 42.5625 277.796875 42.5625 277.1875 L 42.5625 274.386719 C 42.5625 273.402344 43.347656 272.617188 44.332031 272.617188 L 63.882812 272.617188 C 64.867188 272.617188 65.652344 273.402344 65.652344 274.386719 L 65.652344 277.1875 C 65.652344 278.171875 64.867188 278.957031 63.882812 278.957031 L 62.847656 278.957031 C 62.0625 278.703125 61.230469 278.527344 60.371094 278.527344 Z M 42.5625 264.789062 L 42.5625 261.984375 C 42.5625 261 43.347656 260.21875 44.332031 260.21875 L 65.523438 260.21875 C 66.507812 260.21875 67.292969 261 67.292969 261.984375 L 67.292969 264.789062 C 67.292969 265.746094 66.507812 266.554688 65.523438 266.554688 L 44.332031 266.554688 C 43.347656 266.554688 42.5625 265.746094 42.5625 264.789062 Z M 42.5625 289.160156 L 42.5625 286.355469 C 42.5625 285.75 42.890625 285.246094 43.347656 284.917969 C 43.675781 284.96875 44.003906 285.019531 44.332031 285.019531 L 61.507812 285.019531 C 61.886719 285.347656 62.140625 285.800781 62.140625 286.355469 L 62.140625 289.160156 C 62.140625 290.144531 61.355469 290.929688 60.371094 290.929688 L 44.332031 290.929688 C 43.347656 290.929688 42.5625 290.144531 42.5625 289.160156 Z M 318.257812 344.066406 C 306.839844 348.941406 243.308594 374.929688 188.011719 374.929688 C 131.707031 374.929688 67.898438 348.941406 56.457031 344.066406 L 56.457031 296.988281 L 60.371094 296.988281 C 64.691406 296.988281 68.203125 293.480469 68.203125 289.160156 L 68.203125 286.355469 C 68.203125 285.496094 68.023438 284.714844 67.773438 283.933594 C 70.121094 282.59375 71.714844 280.09375 71.714844 277.1875 L 71.714844 274.386719 C 71.714844 273.023438 71.335938 271.734375 70.703125 270.621094 C 72.320312 269.183594 73.355469 267.113281 73.355469 264.789062 L 73.355469 261.984375 C 73.355469 259.660156 72.320312 257.589844 70.703125 256.152344 C 71.335938 255.039062 71.714844 253.75 71.714844 252.386719 L 71.714844 249.585938 C 71.714844 245.265625 68.203125 241.730469 63.882812 241.730469 L 56.457031 241.730469 L 56.457031 185.839844 C 62.898438 188.515625 76.234375 193.769531 93.261719 199.171875 C 93.363281 199.199219 93.414062 199.273438 93.511719 199.300781 C 93.613281 199.324219 93.691406 199.324219 93.792969 199.351562 C 102.734375 202.152344 112.636719 205.007812 123.144531 207.53125 C 123.625 207.863281 124.179688 208.089844 124.8125 208.089844 C 124.9375 208.089844 125.0625 208.039062 125.191406 208.011719 C 145.019531 212.710938 166.742188 216.195312 187.433594 216.195312 C 208.550781 216.195312 230.703125 212.558594 250.835938 207.734375 C 250.988281 207.710938 251.140625 207.683594 251.265625 207.632812 C 261.445312 205.183594 271.121094 202.429688 279.835938 199.703125 C 279.9375 199.679688 280.035156 199.703125 280.113281 199.652344 C 280.214844 199.628906 280.265625 199.578125 280.367188 199.550781 C 297.921875 194.019531 311.664062 188.566406 318.257812 185.839844 L 318.257812 241.730469 L 310.980469 241.730469 C 306.660156 241.730469 303.148438 245.265625 303.148438 249.585938 L 303.148438 252.386719 C 303.148438 253.75 303.527344 255.039062 304.160156 256.152344 C 302.542969 257.589844 301.507812 259.660156 301.507812 261.984375 L 301.507812 264.789062 C 301.507812 267.113281 302.542969 269.183594 304.160156 270.621094 C 303.527344 271.734375 303.148438 273.023438 303.148438 274.386719 L 303.148438 277.1875 C 303.148438 280.09375 304.742188 282.59375 307.089844 283.933594 C 306.839844 284.714844 306.660156 285.496094 306.660156 286.355469 L 306.660156 289.160156 C 306.660156 293.480469 310.171875 296.988281 314.492188 296.988281 L 318.257812 296.988281 Z M 332.300781 289.160156 C 332.300781 290.144531 331.519531 290.929688 330.53125 290.929688 L 314.492188 290.929688 C 313.507812 290.929688 312.722656 290.144531 312.722656 289.160156 L 312.722656 286.355469 C 312.722656 285.800781 312.976562 285.347656 313.355469 285.019531 L 330.53125 285.019531 C 330.859375 285.019531 331.1875 284.96875 331.519531 284.917969 C 331.972656 285.246094 332.300781 285.75 332.300781 286.355469 L 332.300781 289.160156 " fill-opacity="1" fill-rule="nonzero"/></g></svg>