<svg xmlns="http://www.w3.org/2000/svg" xmlns:xlink="http://www.w3.org/1999/xlink" width="500" zoomAndPan="magnify" viewBox="0 0 375 374.999991" height="500" preserveAspectRatio="xMidYMid meet" version="1.0"><defs><clipPath id="82197387a8"><path d="M 0.03125 65.113281 L 374.957031 65.113281 L 374.957031 309.609375 L 0.03125 309.609375 Z M 0.03125 65.113281 " clip-rule="nonzero"/></clipPath></defs><g clip-path="url(#82197387a8)"><path fill="#ffffff" d="M 270.042969 298.855469 C 218.128906 298.855469 175.890625 256.667969 175.890625 204.808594 C 175.890625 152.949219 218.128906 110.761719 270.042969 110.761719 C 321.957031 110.761719 364.195312 152.949219 364.195312 204.808594 C 364.195312 256.667969 321.957031 298.855469 270.042969 298.855469 Z M 366.714844 164.011719 C 361.429688 151.53125 353.863281 140.324219 344.230469 130.703125 C 334.597656 121.078125 323.378906 113.523438 310.882812 108.246094 C 299.589844 103.472656 287.6875 100.753906 275.425781 100.140625 L 275.425781 88.054688 L 281.808594 88.054688 C 285.15625 88.054688 287.867188 85.34375 287.867188 82.003906 L 287.867188 71.164062 C 287.867188 67.820312 285.15625 65.109375 281.808594 65.109375 L 258.277344 65.109375 C 254.929688 65.109375 252.21875 67.820312 252.21875 71.164062 L 252.21875 82.003906 C 252.21875 85.34375 254.929688 88.054688 258.277344 88.054688 L 264.660156 88.054688 L 264.660156 100.140625 C 252.398438 100.753906 240.492188 103.472656 229.203125 108.246094 C 226.902344 109.214844 224.652344 110.261719 222.441406 111.386719 L 115.597656 116.734375 L 206.648438 121.292969 C 202.859375 124.167969 199.257812 127.300781 195.855469 130.703125 C 194.308594 132.246094 192.820312 133.839844 191.378906 135.464844 L 85.6875 140.753906 L 183.425781 145.648438 C 179.808594 150.917969 176.6875 156.511719 174.078125 162.398438 L 34.964844 167.523438 L 170.203125 172.503906 C 167.933594 179.488281 166.421875 186.671875 165.671875 194 L 0.03125 199.3125 L 165.125 204.605469 C 165.125 204.671875 165.125 204.738281 165.125 204.808594 C 165.125 212.546875 165.957031 220.164062 167.605469 227.589844 L 6.011719 232.769531 L 170.511719 238.046875 C 171.363281 240.59375 172.316406 243.113281 173.371094 245.605469 C 174.28125 247.753906 175.261719 249.859375 176.308594 251.933594 L 76.835938 256.910156 L 182.230469 262.1875 C 185.648438 267.394531 189.527344 272.300781 193.863281 276.867188 L 100.761719 281.527344 L 204.59375 286.726562 C 212.078125 292.707031 220.316406 297.617188 229.203125 301.371094 C 242.140625 306.839844 255.882812 309.609375 270.042969 309.609375 C 284.203125 309.609375 297.945312 306.839844 310.882812 301.371094 C 323.378906 296.09375 334.597656 288.539062 344.230469 278.914062 C 353.863281 269.292969 361.429688 258.085938 366.714844 245.605469 C 372.1875 232.679688 374.960938 218.953125 374.960938 204.808594 C 374.960938 190.660156 372.1875 176.9375 366.714844 164.011719 " fill-opacity="1" fill-rule="nonzero"/></g><path fill="#ffffff" d="M 270.042969 194.410156 C 265.617188 194.410156 261.84375 197.203125 260.394531 201.121094 L 247.773438 202.859375 L 250.363281 215.746094 L 263.1875 212.351562 C 265.007812 213.976562 267.410156 214.964844 270.042969 214.964844 C 274.585938 214.964844 278.433594 212.027344 279.796875 207.949219 L 354.664062 188.125 L 278.359375 198.640625 C 276.492188 196.078125 273.460938 194.410156 270.042969 194.410156 " fill-opacity="1" fill-rule="nonzero"/><path fill="#ffffff" d="M 270.402344 133.34375 C 272.054688 133.34375 273.394531 132.007812 273.394531 130.359375 L 273.394531 118.40625 C 273.394531 116.757812 272.054688 115.421875 270.402344 115.421875 C 268.75 115.421875 267.410156 116.757812 267.410156 118.40625 L 267.410156 130.359375 C 267.410156 132.007812 268.75 133.34375 270.402344 133.34375 " fill-opacity="1" fill-rule="nonzero"/><path fill="#ffffff" d="M 306.0625 143.082031 C 306.535156 143.355469 307.046875 143.484375 307.558594 143.484375 C 308.589844 143.484375 309.59375 142.949219 310.148438 141.992188 L 316.132812 131.640625 C 316.957031 130.214844 316.46875 128.386719 315.039062 127.558594 C 313.605469 126.734375 311.777344 127.226562 310.953125 128.652344 L 304.96875 139.003906 C 304.144531 140.433594 304.632812 142.257812 306.0625 143.082031 " fill-opacity="1" fill-rule="nonzero"/><path fill="#ffffff" d="M 332.074219 169.328125 C 332.628906 170.285156 333.632812 170.824219 334.667969 170.824219 C 335.175781 170.824219 335.6875 170.691406 336.160156 170.421875 L 346.519531 164.445312 C 347.953125 163.621094 348.441406 161.792969 347.613281 160.363281 C 346.789062 158.9375 344.960938 158.445312 343.53125 159.273438 L 333.171875 165.246094 C 331.738281 166.070312 331.25 167.898438 332.074219 169.328125 " fill-opacity="1" fill-rule="nonzero"/><path fill="#ffffff" d="M 341.464844 205.046875 C 341.464844 206.699219 342.800781 208.035156 344.453125 208.035156 L 356.417969 208.035156 C 358.070312 208.035156 359.40625 206.699219 359.40625 205.046875 C 359.40625 203.398438 358.070312 202.058594 356.417969 202.058594 L 344.453125 202.058594 C 342.800781 202.058594 341.464844 203.398438 341.464844 205.046875 " fill-opacity="1" fill-rule="nonzero"/><path fill="#ffffff" d="M 346.160156 245.550781 L 335.800781 239.578125 C 334.371094 238.75 332.542969 239.242188 331.714844 240.667969 C 330.890625 242.097656 331.378906 243.925781 332.808594 244.75 L 343.171875 250.726562 C 343.640625 250.996094 344.15625 251.128906 344.664062 251.128906 C 345.695312 251.128906 346.703125 250.589844 347.253906 249.632812 C 348.082031 248.203125 347.59375 246.378906 346.160156 245.550781 " fill-opacity="1" fill-rule="nonzero"/><path fill="#ffffff" d="M 309.527344 267.746094 C 308.703125 266.316406 306.875 265.828125 305.441406 266.652344 C 304.011719 267.476562 303.523438 269.304688 304.347656 270.734375 L 310.328125 281.082031 C 310.882812 282.042969 311.886719 282.578125 312.921875 282.578125 C 313.429688 282.578125 313.945312 282.445312 314.414062 282.175781 C 315.847656 281.351562 316.335938 279.523438 315.511719 278.09375 L 309.527344 267.746094 " fill-opacity="1" fill-rule="nonzero"/><path fill="#ffffff" d="M 269.683594 276.03125 C 268.03125 276.03125 266.695312 277.371094 266.695312 279.019531 L 266.695312 290.96875 C 266.695312 292.617188 268.03125 293.957031 269.683594 293.957031 C 271.335938 293.957031 272.675781 292.617188 272.675781 290.96875 L 272.675781 279.019531 C 272.675781 277.371094 271.335938 276.03125 269.683594 276.03125 " fill-opacity="1" fill-rule="nonzero"/><path fill="#ffffff" d="M 234.019531 266.292969 C 232.589844 265.46875 230.761719 265.957031 229.9375 267.386719 L 223.953125 277.734375 C 223.128906 279.164062 223.617188 280.992188 225.046875 281.816406 C 225.519531 282.089844 226.035156 282.21875 226.542969 282.21875 C 227.574219 282.21875 228.582031 281.683594 229.136719 280.722656 L 235.117188 270.375 C 235.941406 268.945312 235.453125 267.121094 234.019531 266.292969 " fill-opacity="1" fill-rule="nonzero"/><path fill="#ffffff" d="M 203.925781 238.957031 L 193.566406 244.929688 C 192.136719 245.757812 191.644531 247.582031 192.46875 249.011719 C 193.023438 249.96875 194.03125 250.507812 195.0625 250.507812 C 195.570312 250.507812 196.085938 250.378906 196.554688 250.105469 L 206.917969 244.128906 C 208.347656 243.304688 208.835938 241.476562 208.011719 240.046875 C 207.183594 238.621094 205.355469 238.132812 203.925781 238.957031 " fill-opacity="1" fill-rule="nonzero"/><path fill="#ffffff" d="M 198.621094 204.332031 C 198.621094 202.679688 197.28125 201.34375 195.628906 201.34375 L 183.667969 201.34375 C 182.015625 201.34375 180.675781 202.679688 180.675781 204.332031 C 180.675781 205.980469 182.015625 207.316406 183.667969 207.316406 L 195.628906 207.316406 C 197.28125 207.316406 198.621094 205.980469 198.621094 204.332031 " fill-opacity="1" fill-rule="nonzero"/><path fill="#ffffff" d="M 207.277344 164.625 L 196.914062 158.652344 C 195.484375 157.824219 193.65625 158.316406 192.828125 159.742188 C 192.003906 161.171875 192.496094 163 193.925781 163.824219 L 204.285156 169.800781 C 204.753906 170.070312 205.269531 170.199219 205.777344 170.199219 C 206.8125 170.199219 207.816406 169.664062 208.371094 168.707031 C 209.195312 167.277344 208.707031 165.453125 207.277344 164.625 " fill-opacity="1" fill-rule="nonzero"/><path fill="#ffffff" d="M 229.757812 128.296875 C 228.929688 126.867188 227.101562 126.375 225.671875 127.199219 C 224.238281 128.027344 223.75 129.855469 224.578125 131.28125 L 230.558594 141.632812 C 231.113281 142.589844 232.117188 143.125 233.152344 143.125 C 233.65625 143.125 234.171875 142.996094 234.644531 142.722656 C 236.074219 141.898438 236.5625 140.074219 235.738281 138.644531 L 229.757812 128.296875 " fill-opacity="1" fill-rule="nonzero"/></svg>